<svg xmlns="http://www.w3.org/2000/svg" version="1.0" width="1818" height="337" preserveAspectRatio="xMidYMid meet"><rect id="backgroundrect" width="100%" height="100%" x="0" y="0" fill="none" stroke="none"/>


<g class="currentLayer" style=""><title>Layer 1</title><g transform="translate(0,337) scale(0.10000000149011612,-0.10000000149011612) " fill="#257c9e" stroke="none" id="svg_1" class="selected" fill-opacity="1">
<path d="M461 3114 c-120 -32 -218 -113 -270 -224 l-26 -55 0 -810 0 -810 33 -67 c41 -84 128 -167 209 -200 l58 -23 1280 -3 1280 -2 -100 100 -100 100 -1160 0 c-1111 0 -1162 1 -1201 19 -23 10 -54 36 -70 57 l-29 37 -3 771 c-2 690 -1 775 14 814 19 51 64 87 124 101 30 7 469 11 1285 11 l1240 0 -100 100 -100 100 -1155 -1 c-976 0 -1163 -3 -1209 -15z" id="svg_2" fill="#257c9e" fill-opacity="1"/>
<path d="M3174 3031 l98 -98 97 -6 c127 -7 182 -35 210 -110 8 -19 11 -275 11 -792 0 -517 -3 -773 -11 -792 -15 -40 -48 -73 -94 -94 -34 -16 -67 -19 -225 -19 l-185 0 100 -100 100 -100 86 0 c201 0 349 98 415 275 18 47 19 96 22 769 2 405 -1 753 -6 797 -22 183 -145 321 -320 358 -29 6 -130 11 -225 11 l-172 0 99 -99z" id="svg_3" fill="#257c9e" fill-opacity="1"/>
<path d="M5110 3119 c-150 -29 -281 -164 -310 -318 -6 -34 -10 -392 -10 -967 l0 -914 100 0 100 0 2 938 c3 1024 0 964 60 1018 56 51 4 49 1086 54 l1013 5 -99 98 -99 97 -899 -1 c-494 -1 -919 -5 -944 -10z" id="svg_4" fill="#257c9e" fill-opacity="1"/>
<path d="M7294 3031 l98 -98 97 -5 c113 -6 167 -29 204 -88 21 -34 22 -47 25 -315 4 -301 0 -332 -45 -386 -52 -62 -2 -59 -1060 -59 l-968 0 100 -100 100 -100 890 2 890 3 58 27 c109 51 184 136 218 248 19 63 20 88 17 367 l-3 299 -38 76 c-58 119 -156 193 -287 218 -29 5 -130 10 -224 10 l-171 0 99 -99z" id="svg_5" fill="#257c9e" fill-opacity="1"/>
<path d="M8920 2025 l0 -1105 100 0 100 0 0 1105 0 1105 -100 0 -100 0 0 -1105z" id="svg_6" fill="#257c9e" fill-opacity="1"/>
<path d="M10421 3114 c-120 -32 -212 -109 -268 -222 l-28 -57 0 -810 0 -810 33 -67 c41 -84 128 -167 209 -200 l58 -23 1280 -3 1280 -2 -100 100 -100 100 -1160 0 c-1111 0 -1162 1 -1201 19 -23 10 -54 36 -70 57 l-29 37 -3 771 c-2 690 -1 775 14 814 19 51 64 87 124 101 30 7 469 11 1285 11 l1240 0 -100 100 -100 100 -1155 -1 c-976 0 -1163 -3 -1209 -15z" id="svg_7" fill="#257c9e" fill-opacity="1"/>
<path d="M13134 3031 l98 -98 97 -6 c127 -7 182 -35 210 -110 8 -19 11 -275 11 -792 0 -517 -3 -773 -11 -792 -15 -40 -48 -73 -94 -94 -34 -16 -67 -19 -225 -19 l-185 0 100 -100 100 -100 86 0 c199 0 348 96 412 267 22 57 22 66 25 786 2 429 -1 756 -7 797 -24 177 -148 312 -319 349 -29 6 -130 11 -225 11 l-172 0 99 -99z" id="svg_8" fill="#257c9e" fill-opacity="1"/>
<path d="M14976 3113 c-67 -20 -129 -64 -166 -117 -61 -90 -60 -66 -60 -1118 l0 -958 100 0 100 0 0 953 c0 642 4 964 11 990 16 60 53 70 219 65 98 -3 143 -9 165 -21 17 -8 210 -196 430 -416 l400 -401 135 0 135 0 -480 481 c-510 511 -524 522 -643 548 -77 16 -286 13 -346 -6z" id="svg_9" fill="#257c9e" fill-opacity="1"/>
<path d="M17807 3124 c-4 -4 -7 -443 -7 -975 0 -532 -3 -975 -6 -984 -14 -34 -58 -45 -191 -45 -70 0 -146 5 -168 11 -34 9 -104 75 -450 420 l-411 409 -134 0 -135 0 485 -485 c453 -452 490 -486 555 -517 l70 -33 180 0 c177 0 181 1 237 28 67 33 111 80 147 157 l26 55 0 980 0 980 -95 3 c-53 1 -99 0 -103 -4z" id="svg_10" fill="#257c9e" fill-opacity="1"/>
<path d="M7230 1325 l405 -405 135 0 135 0 -405 405 -405 405 -135 0 -135 0 405 -405z" id="svg_11" fill="#257c9e" fill-opacity="1"/>
<path d="M9462 518 c-8 -8 -12 -67 -12 -198 0 -131 4 -190 12 -198 9 -9 113 -12 405 -12 341 0 393 2 393 15 0 13 -52 15 -387 17 l-388 3 0 175 0 175 388 3 c335 2 387 4 387 17 0 13 -52 15 -393 15 -292 0 -396 -3 -405 -12z" id="svg_12" fill="#257c9e" fill-opacity="1"/>
<path d="M10530 320 c0 -203 1 -210 20 -210 19 0 20 7 20 210 0 203 -1 210 -20 210 -19 0 -20 -7 -20 -210z" id="svg_13" fill="#257c9e" fill-opacity="1"/>
<path d="M10850 515 c0 -13 28 -15 189 -15 159 0 190 2 195 15 5 13 -20 15 -189 15 -167 0 -195 -2 -195 -15z" id="svg_14" fill="#257c9e" fill-opacity="1"/>
<path d="M11266 514 c-13 -13 -16 -46 -16 -210 0 -187 1 -194 20 -194 19 0 20 7 20 195 l0 195 185 0 c158 0 185 2 185 15 0 23 -371 22 -394 -1z" id="svg_15" fill="#257c9e" fill-opacity="1"/>
<path d="M12021 464 c46 -36 105 -82 132 -102 l47 -36 0 -108 c0 -101 1 -108 20 -108 19 0 20 7 20 113 l0 112 -124 98 c-88 68 -133 97 -152 97 -24 0 -17 -8 57 -66z" id="svg_16" fill="#257c9e" fill-opacity="1"/>
<path d="M12395 434 c-66 -52 -121 -104 -123 -115 -2 -10 -1 -19 2 -19 3 0 71 52 152 115 123 97 141 115 117 115 -20 -1 -62 -28 -148 -96z" id="svg_17" fill="#257c9e" fill-opacity="1"/>
<path d="M12866 514 c-20 -20 -23 -161 -3 -187 11 -15 49 -17 387 -19 l375 -3 0 -80 0 -80 -387 -3 c-336 -2 -388 -4 -388 -17 0 -22 781 -23 799 -1 8 9 11 47 9 107 -3 90 -4 93 -28 100 -14 4 -186 7 -382 8 l-358 1 0 80 0 80 385 0 c336 0 385 2 385 15 0 13 -50 15 -389 15 -341 0 -392 -2 -405 -16z" id="svg_18" fill="#257c9e" fill-opacity="1"/>
<path d="M13952 518 c-8 -8 -12 -67 -12 -200 0 -175 1 -188 19 -198 13 -6 159 -10 405 -10 336 0 386 2 386 15 0 13 -49 15 -385 15 l-385 0 0 180 0 180 385 0 c336 0 385 2 385 15 0 13 -50 15 -393 15 -292 0 -396 -3 -405 -12z" id="svg_19" fill="#257c9e" fill-opacity="1"/>
<path d="M15042 518 c-9 -9 -12 -69 -12 -210 0 -169 2 -198 15 -198 13 0 15 28 15 195 l0 195 370 0 370 0 0 -195 c0 -188 1 -195 20 -195 19 0 20 7 20 194 0 164 -3 197 -16 210 -13 14 -63 16 -393 16 -280 0 -380 -3 -389 -12z" id="svg_20" fill="#257c9e" fill-opacity="1"/>
<path d="M16110 515 c0 -13 52 -15 388 -17 l387 -3 3 -77 3 -77 -374 -3 c-299 -2 -377 -6 -390 -17 -14 -11 -17 -33 -17 -112 0 -92 1 -99 20 -99 18 0 20 8 22 97 l3 98 380 5 c209 3 381 7 383 8 9 8 0 190 -10 200 -9 9 -113 12 -405 12 -341 0 -393 -2 -393 -15z" id="svg_21" fill="#257c9e" fill-opacity="1"/>
<path d="M17212 518 c-8 -8 -12 -67 -12 -200 0 -175 1 -188 19 -198 13 -6 159 -10 405 -10 336 0 386 2 386 15 0 13 -49 15 -385 15 l-385 0 0 180 0 180 385 0 c336 0 385 2 385 15 0 13 -50 15 -393 15 -292 0 -396 -3 -405 -12z" id="svg_22" fill="#257c9e" fill-opacity="1"/>
<path d="M15190 325 c0 -13 33 -15 240 -15 207 0 240 2 240 15 0 13 -33 15 -240 15 -207 0 -240 -2 -240 -15z" id="svg_23" fill="#257c9e" fill-opacity="1"/>
<path d="M17600 325 c0 -13 29 -15 205 -15 176 0 205 2 205 15 0 13 -29 15 -205 15 -176 0 -205 -2 -205 -15z" id="svg_24" fill="#257c9e" fill-opacity="1"/>
</g></g></svg>